<?xml version="1.0" encoding="UTF-8"?>
<svg xmlns="http://www.w3.org/2000/svg" xmlns:xlink="http://www.w3.org/1999/xlink" width="15pt" height="15pt" viewBox="0 0 15 15" version="1.1">
<g id="surface12191937">
<rect x="0" y="0" width="15" height="15" style="fill:rgb(12.54902%,12.54902%,17.647059%);fill-opacity:1;stroke:none;"/>
<path style=" stroke:none;fill-rule:nonzero;fill:rgb(100%,100%,100%);fill-opacity:1;" d="M 2.699219 1.199219 C 1.875 1.199219 1.199219 1.875 1.199219 2.699219 L 1.199219 12.300781 C 1.199219 13.125 1.875 13.800781 2.699219 13.800781 L 12.300781 13.800781 C 13.125 13.800781 13.800781 13.125 13.800781 12.300781 L 13.800781 2.699219 C 13.800781 1.875 13.125 1.199219 12.300781 1.199219 Z M 2.699219 1.800781 L 12.300781 1.800781 C 12.800781 1.800781 13.199219 2.199219 13.199219 2.699219 L 13.199219 12.300781 C 13.199219 12.800781 12.800781 13.199219 12.300781 13.199219 L 2.699219 13.199219 C 2.199219 13.199219 1.800781 12.800781 1.800781 12.300781 L 1.800781 2.699219 C 1.800781 2.199219 2.199219 1.800781 2.699219 1.800781 Z M 4.199219 3.304688 C 3.871094 3.304688 3.574219 3.402344 3.355469 3.585938 C 3.136719 3.769531 3.003906 4.046875 3.003906 4.339844 C 3.003906 4.898438 3.488281 5.335938 4.109375 5.378906 C 4.136719 5.390625 4.167969 5.394531 4.199219 5.394531 C 4.882812 5.394531 5.398438 4.917969 5.398438 4.339844 C 5.394531 4.335938 5.394531 4.328125 5.394531 4.324219 C 5.367188 3.753906 4.855469 3.304688 4.199219 3.304688 Z M 4.199219 3.898438 C 4.617188 3.898438 4.78125 4.082031 4.800781 4.347656 C 4.796875 4.605469 4.636719 4.804688 4.199219 4.804688 C 3.785156 4.804688 3.597656 4.589844 3.597656 4.339844 C 3.597656 4.214844 3.640625 4.121094 3.738281 4.039062 C 3.835938 3.957031 3.988281 3.898438 4.199219 3.898438 Z M 3.300781 5.699219 C 3.132812 5.699219 3 5.835938 3 6 L 3 11.699219 C 3 11.867188 3.132812 12 3.300781 12 L 5.101562 12 C 5.265625 12 5.398438 11.867188 5.398438 11.699219 L 5.398438 6 C 5.398438 5.835938 5.265625 5.699219 5.101562 5.699219 Z M 6 5.699219 C 5.835938 5.699219 5.699219 5.835938 5.699219 6 L 5.699219 11.699219 C 5.699219 11.867188 5.835938 12 6 12 L 7.800781 12 C 7.964844 12 8.101562 11.867188 8.101562 11.699219 L 8.101562 8.699219 C 8.101562 8.449219 8.167969 8.203125 8.289062 8.042969 C 8.40625 7.878906 8.558594 7.78125 8.84375 7.789062 C 9.140625 7.792969 9.296875 7.894531 9.414062 8.050781 C 9.535156 8.210938 9.601562 8.449219 9.601562 8.699219 L 9.601562 11.699219 C 9.601562 11.867188 9.734375 12 9.898438 12 L 11.699219 12 C 11.867188 12 12 11.867188 12 11.699219 L 12 8.480469 C 12 7.589844 11.738281 6.886719 11.285156 6.410156 C 10.835938 5.933594 10.207031 5.699219 9.542969 5.699219 C 8.914062 5.699219 8.433594 5.910156 8.101562 6.128906 L 8.101562 6 C 8.101562 5.835938 7.964844 5.699219 7.800781 5.699219 Z M 3.601562 6.300781 L 4.800781 6.300781 L 4.800781 11.398438 L 3.601562 11.398438 Z M 6.300781 6.300781 L 7.5 6.300781 L 7.5 6.769531 C 7.5 6.898438 7.582031 7.011719 7.703125 7.050781 C 7.828125 7.09375 7.960938 7.050781 8.039062 6.949219 C 8.039062 6.949219 8.511719 6.300781 9.542969 6.300781 C 10.070312 6.300781 10.519531 6.476562 10.851562 6.824219 C 11.179688 7.171875 11.398438 7.707031 11.398438 8.480469 L 11.398438 11.398438 L 10.199219 11.398438 L 10.199219 8.699219 C 10.199219 8.351562 10.117188 7.988281 9.898438 7.695312 C 9.679688 7.398438 9.308594 7.195312 8.855469 7.1875 C 8.398438 7.179688 8.023438 7.386719 7.804688 7.6875 C 7.585938 7.984375 7.5 8.347656 7.5 8.699219 L 7.5 11.398438 L 6.300781 11.398438 Z M 6.300781 6.300781 "/>
</g>
</svg>
